<svg width="59" height="61" viewBox="0 0 59 61" fill="none" xmlns="http://www.w3.org/2000/svg">
<path d="M4 11C4 8.23857 6.23858 6 9 6H54C56.7614 6 59 8.23858 59 11V56C59 58.7614 56.7614 61 54 61H9C6.23857 61 4 58.7614 4 56V11Z" fill="#981CFE"/>
<path d="M27.0566 15.4073C26.9051 13.7406 26.2309 12.4452 25.0339 11.521C23.8521 10.5816 22.1627 10.1119 19.9657 10.1119C18.5112 10.1119 17.2991 10.3013 16.3294 10.68C15.3597 11.0588 14.6324 11.5816 14.1476 12.2482C13.6627 12.8997 13.4127 13.6497 13.3976 14.4982C13.3672 15.1952 13.5036 15.8088 13.8066 16.3391C14.1248 16.8694 14.5794 17.3391 15.1703 17.7482C15.7763 18.1422 16.5036 18.4906 17.3521 18.7937C18.2006 19.0967 19.1551 19.3619 20.2157 19.5891L24.2157 20.4982C26.5188 20.9982 28.5491 21.6649 30.3066 22.4982C32.0794 23.3316 33.5642 24.324 34.7612 25.4755C35.9733 26.627 36.89 27.9528 37.5112 29.4528C38.1324 30.9528 38.4506 32.6346 38.4657 34.4982C38.4506 37.4376 37.7082 39.9603 36.2385 42.0664C34.7688 44.1725 32.6551 45.7861 29.8976 46.9073C27.1551 48.0285 23.8445 48.5891 19.9657 48.5891C16.0718 48.5891 12.6779 48.0058 9.78391 46.8391C6.88997 45.6725 4.63997 43.8997 3.03391 41.521C1.42785 39.1422 0.602095 36.1346 0.556641 32.4982H11.3294C11.4203 33.9982 11.8218 35.2482 12.5339 36.2482C13.246 37.2482 14.2233 38.0058 15.4657 38.521C16.7233 39.0361 18.1779 39.2937 19.8294 39.2937C21.3445 39.2937 22.6324 39.0891 23.693 38.68C24.7688 38.271 25.5945 37.7028 26.1703 36.9755C26.746 36.2482 27.0415 35.4149 27.0566 34.4755C27.0415 33.5967 26.7688 32.8467 26.2385 32.2255C25.7082 31.5891 24.89 31.0437 23.7839 30.5891C22.693 30.1194 21.2991 29.6876 19.6021 29.2937L14.7385 28.1573C10.7082 27.2331 7.53391 25.7406 5.21573 23.68C2.89755 21.6043 1.74603 18.8013 1.76119 15.271C1.74603 12.3922 2.51876 9.86944 4.07937 7.70277C5.63997 5.5361 7.79907 3.84671 10.5566 2.63459C13.3142 1.42247 16.4582 0.816406 19.9885 0.816406C23.5945 0.816406 26.7233 1.43004 29.3748 2.65731C32.0415 3.86944 34.1097 5.57398 35.5794 7.77095C37.0491 9.96792 37.7991 12.5134 37.8294 15.4073H27.0566Z" fill="white"/>
</svg>
