<svg width="167" height="56" viewBox="0 0 167 56" fill="none" xmlns="http://www.w3.org/2000/svg">
<path d="M0 4.66667C0 2.08934 2.08934 0 4.66667 0L160.905 0C163.978 0 166.212 2.91767 165.41 5.88378L152.803 52.5504C152.253 54.586 150.406 56 148.298 56H4.66667C2.08934 56 0 53.9107 0 51.3333V4.66667Z" fill="url(#paint0_linear_1272_3863)"/>
<path d="M32.8887 24.9464C32.8319 24.3214 32.5791 23.8356 32.1302 23.489C31.687 23.1367 31.0535 22.9606 30.2296 22.9606C29.6842 22.9606 29.2296 23.0316 28.866 23.1736C28.5024 23.3157 28.2296 23.5117 28.0478 23.7617C27.866 24.006 27.7722 24.2873 27.7666 24.6055C27.7552 24.8668 27.8063 25.0969 27.92 25.2958C28.0393 25.4947 28.2097 25.6708 28.4313 25.8242C28.6586 25.9719 28.9313 26.1026 29.2495 26.2163C29.5677 26.3299 29.9257 26.4293 30.3234 26.5146L31.8234 26.8555C32.687 27.043 33.4484 27.293 34.1075 27.6055C34.7722 27.918 35.3291 28.2901 35.7779 28.7219C36.2325 29.1538 36.5762 29.6509 36.8092 30.2134C37.0421 30.7759 37.1614 31.4066 37.1671 32.1055C37.1614 33.2077 36.883 34.1538 36.3319 34.9435C35.7808 35.7333 34.9882 36.3384 33.9541 36.7589C32.9257 37.1793 31.6842 37.3896 30.2296 37.3896C28.7694 37.3896 27.4967 37.1708 26.4114 36.7333C25.3262 36.2958 24.4825 35.631 23.8802 34.739C23.2779 33.8469 22.9683 32.7191 22.9512 31.3555H26.991C27.0251 31.918 27.1757 32.3867 27.4427 32.7617C27.7097 33.1367 28.0762 33.4208 28.5421 33.614C29.0137 33.8072 29.5592 33.9038 30.1785 33.9038C30.7467 33.9038 31.2296 33.8271 31.6274 33.6737C32.0308 33.5202 32.3404 33.3072 32.5563 33.0344C32.7722 32.7617 32.883 32.4492 32.8887 32.0969C32.883 31.7674 32.7808 31.4862 32.5819 31.2532C32.383 31.0146 32.0762 30.81 31.6614 30.6396C31.2524 30.4634 30.7296 30.3015 30.0933 30.1538L28.2694 29.7276C26.758 29.381 25.5677 28.8214 24.6984 28.0487C23.8291 27.2702 23.3972 26.2191 23.4029 24.8952C23.3972 23.8157 23.687 22.8697 24.2722 22.0572C24.8575 21.2447 25.6671 20.6112 26.7012 20.1566C27.7353 19.7021 28.9143 19.4748 30.2382 19.4748C31.5904 19.4748 32.7637 19.7049 33.758 20.1651C34.758 20.6197 35.5336 21.2589 36.0847 22.0827C36.6359 22.9066 36.9171 23.8611 36.9285 24.9464H32.8887ZM40.0178 42.0771V24.0771H44.1428V26.3185H44.2706C44.4411 25.9208 44.6826 25.5373 44.9951 25.168C45.3133 24.7987 45.7167 24.4975 46.2053 24.2646C46.6996 24.0259 47.2905 23.9066 47.978 23.9066C48.8871 23.9066 49.7366 24.1452 50.5263 24.6225C51.3218 25.0998 51.9638 25.8356 52.4525 26.8299C52.9411 27.8242 53.1854 29.0913 53.1854 30.631C53.1854 32.114 52.9496 33.3555 52.478 34.3555C52.0121 35.3555 51.3814 36.1055 50.586 36.6055C49.7962 37.1055 48.9184 37.3555 47.9525 37.3555C47.2934 37.3555 46.7224 37.2475 46.2394 37.0316C45.7564 36.8157 45.3502 36.5316 45.0206 36.1793C44.6968 35.8271 44.4468 35.4492 44.2706 35.0458H44.1854V42.0771H40.0178ZM44.1002 30.6225C44.1002 31.3271 44.1939 31.9407 44.3814 32.4634C44.5746 32.9862 44.8502 33.3924 45.2081 33.6822C45.5718 33.9663 46.0064 34.1083 46.5121 34.1083C47.0235 34.1083 47.4581 33.9663 47.8161 33.6822C48.1741 33.3924 48.4439 32.9862 48.6258 32.4634C48.8133 31.9407 48.907 31.3271 48.907 30.6225C48.907 29.918 48.8133 29.3072 48.6258 28.7901C48.4439 28.2731 48.1741 27.8725 47.8161 27.5884C47.4638 27.3043 47.0292 27.1623 46.5121 27.1623C46.0008 27.1623 45.5661 27.3015 45.2081 27.5799C44.8502 27.8583 44.5746 28.256 44.3814 28.7731C44.1939 29.2901 44.1002 29.9066 44.1002 30.6225ZM59.7797 37.3896C58.9445 37.3896 58.203 37.2504 57.5553 36.9719C56.9132 36.6879 56.4047 36.2617 56.0297 35.6935C55.6604 35.1197 55.4757 34.4009 55.4757 33.5373C55.4757 32.81 55.6036 32.1964 55.8593 31.6964C56.1149 31.1964 56.4672 30.7901 56.9161 30.4776C57.3649 30.1651 57.882 29.9293 58.4672 29.7702C59.0524 29.6055 59.6774 29.4947 60.3422 29.4379C61.0865 29.3697 61.686 29.2987 62.1405 29.2248C62.5951 29.1452 62.9246 29.0344 63.1291 28.8924C63.3394 28.7447 63.4445 28.5373 63.4445 28.2702V28.2276C63.4445 27.7901 63.2939 27.4521 62.9928 27.2134C62.6916 26.9748 62.2854 26.8555 61.774 26.8555C61.2229 26.8555 60.7797 26.9748 60.4445 27.2134C60.1093 27.4521 59.8962 27.7816 59.8053 28.2021L55.9615 28.0657C56.0752 27.2702 56.3678 26.56 56.8394 25.935C57.3166 25.3043 57.9701 24.81 58.7996 24.4521C59.6348 24.0884 60.6377 23.9066 61.8081 23.9066C62.6433 23.9066 63.4132 24.006 64.1178 24.2049C64.8223 24.3981 65.436 24.6822 65.9587 25.0572C66.4814 25.4265 66.8848 25.881 67.1689 26.4208C67.4587 26.9606 67.6036 27.5771 67.6036 28.2702V37.168H63.6831V35.3441H63.5808C63.3479 35.7873 63.0496 36.1623 62.686 36.4691C62.328 36.7759 61.9047 37.006 61.4161 37.1594C60.9331 37.3129 60.3877 37.3896 59.7797 37.3896ZM61.0666 34.6623C61.5155 34.6623 61.9189 34.5714 62.2769 34.3896C62.6405 34.2077 62.9303 33.9577 63.1462 33.6396C63.3621 33.3157 63.4701 32.9407 63.4701 32.5146V31.2702C63.3507 31.3327 63.2058 31.3896 63.0354 31.4407C62.8706 31.4918 62.6888 31.5401 62.4899 31.5856C62.2911 31.631 62.0865 31.6708 61.8763 31.7049C61.6661 31.739 61.4644 31.7702 61.2712 31.7987C60.8791 31.8612 60.5439 31.9577 60.2655 32.0884C59.9928 32.2191 59.7826 32.3896 59.6348 32.5998C59.4928 32.8043 59.4218 33.0487 59.4218 33.3327C59.4218 33.7646 59.5752 34.0941 59.882 34.3214C60.1945 34.5487 60.5894 34.6623 61.0666 34.6623ZM76.9827 37.4151C75.602 37.4151 74.4173 37.131 73.4287 36.5629C72.4457 35.9947 71.6901 35.2049 71.1616 34.1935C70.6332 33.1765 70.369 32.0004 70.369 30.6651C70.369 29.3242 70.6332 28.1481 71.1616 27.1367C71.6957 26.1197 72.4543 25.3271 73.4372 24.7589C74.4259 24.1907 75.6048 23.9066 76.9741 23.9066C78.1844 23.9066 79.2384 24.1254 80.1361 24.5629C81.0395 25.0004 81.744 25.6197 82.2497 26.4208C82.7611 27.2163 83.031 28.1509 83.0594 29.2248H79.1645C79.0849 28.5543 78.8577 28.0288 78.4827 27.6481C78.1134 27.2674 77.6304 27.0771 77.0338 27.0771C76.5509 27.0771 76.1276 27.2134 75.7639 27.4862C75.4003 27.7532 75.1162 28.1509 74.9116 28.6793C74.7128 29.2021 74.6133 29.8498 74.6133 30.6225C74.6133 31.3952 74.7128 32.0487 74.9116 32.5827C75.1162 33.1112 75.4003 33.5117 75.7639 33.7844C76.1276 34.0515 76.5509 34.185 77.0338 34.185C77.4202 34.185 77.7611 34.1026 78.0565 33.9379C78.3577 33.7731 78.6048 33.5316 78.798 33.2134C78.9912 32.8896 79.1133 32.4975 79.1645 32.0373H83.0594C83.0196 33.1168 82.7497 34.06 82.2497 34.8668C81.7554 35.6737 81.0594 36.3015 80.1616 36.7504C79.2696 37.1935 78.2099 37.4151 76.9827 37.4151ZM92.0315 37.4151C90.6622 37.4151 89.4804 37.1452 88.4861 36.6055C87.4974 36.06 86.7361 35.2844 86.202 34.2788C85.6736 33.2674 85.4093 32.0657 85.4093 30.6737C85.4093 29.3214 85.6764 28.1396 86.2105 27.1282C86.7446 26.1112 87.4974 25.3214 88.469 24.7589C89.4406 24.1907 90.5855 23.9066 91.9037 23.9066C92.8355 23.9066 93.6878 24.0515 94.4605 24.3413C95.2332 24.631 95.9008 25.06 96.4633 25.6282C97.0258 26.1964 97.4633 26.8981 97.7758 27.7333C98.0883 28.5629 98.2446 29.5146 98.2446 30.5884V31.6282H86.8667V29.2077H94.3667C94.3611 28.7646 94.2559 28.3697 94.0514 28.0231C93.8468 27.6765 93.5656 27.4066 93.2076 27.2134C92.8554 27.0146 92.4491 26.9151 91.9889 26.9151C91.523 26.9151 91.1054 27.0202 90.7361 27.2305C90.3667 27.435 90.0741 27.7163 89.8582 28.0742C89.6423 28.4265 89.5287 28.8271 89.5173 29.2759V31.739C89.5173 32.2731 89.6224 32.7418 89.8326 33.1452C90.0429 33.543 90.3412 33.8526 90.7275 34.0742C91.1139 34.2958 91.5741 34.4066 92.1082 34.4066C92.4775 34.4066 92.8128 34.3555 93.1139 34.2532C93.415 34.1509 93.6736 34.0004 93.8895 33.8015C94.1054 33.6026 94.2673 33.3583 94.3753 33.0685L98.202 33.1793C98.0429 34.0373 97.6934 34.7844 97.1537 35.4208C96.6196 36.0515 95.9179 36.543 95.0486 36.8952C94.1792 37.2418 93.1736 37.4151 92.0315 37.4151ZM112.522 28.0742L108.695 28.1765C108.656 27.9038 108.548 27.6623 108.372 27.4521C108.195 27.2362 107.965 27.0685 107.681 26.9492C107.403 26.8242 107.079 26.7617 106.71 26.7617C106.227 26.7617 105.815 26.8583 105.474 27.0515C105.139 27.2447 104.974 27.506 104.979 27.8356C104.974 28.0913 105.076 28.3129 105.286 28.5004C105.502 28.6879 105.886 28.8384 106.437 28.9521L108.96 29.4293C110.266 29.6793 111.238 30.0941 111.874 30.6737C112.516 31.2532 112.84 32.0202 112.846 32.9748C112.84 33.8725 112.573 34.6538 112.045 35.3185C111.522 35.9833 110.806 36.5004 109.897 36.8697C108.988 37.2333 107.948 37.4151 106.778 37.4151C104.908 37.4151 103.434 37.0316 102.354 36.2646C101.281 35.4918 100.667 34.4577 100.514 33.1623L104.63 33.06C104.721 33.5373 104.957 33.9009 105.337 34.1509C105.718 34.4009 106.204 34.5259 106.795 34.5259C107.329 34.5259 107.764 34.4265 108.099 34.2276C108.434 34.0288 108.604 33.7646 108.61 33.435C108.604 33.1396 108.474 32.9038 108.218 32.7276C107.962 32.5458 107.562 32.4038 107.016 32.3015L104.732 31.8668C103.42 31.6282 102.443 31.1879 101.801 30.5458C101.158 29.8981 100.84 29.0742 100.846 28.0742C100.84 27.1992 101.073 26.4521 101.545 25.8327C102.016 25.2077 102.687 24.7305 103.556 24.4009C104.426 24.0714 105.451 23.9066 106.633 23.9066C108.406 23.9066 109.803 24.2788 110.826 25.0231C111.849 25.7617 112.414 26.7788 112.522 28.0742ZM121.729 37.4151C120.354 37.4151 119.172 37.1339 118.183 36.5714C117.2 36.0032 116.442 35.2134 115.908 34.2021C115.379 33.185 115.115 32.006 115.115 30.6651C115.115 29.3185 115.379 28.1396 115.908 27.1282C116.442 26.1112 117.2 25.3214 118.183 24.7589C119.172 24.1907 120.354 23.9066 121.729 23.9066C123.104 23.9066 124.283 24.1907 125.266 24.7589C126.254 25.3214 127.013 26.1112 127.541 27.1282C128.075 28.1396 128.342 29.3185 128.342 30.6651C128.342 32.006 128.075 33.185 127.541 34.2021C127.013 35.2134 126.254 36.0032 125.266 36.5714C124.283 37.1339 123.104 37.4151 121.729 37.4151ZM121.754 34.2702C122.254 34.2702 122.677 34.1168 123.024 33.81C123.371 33.5032 123.635 33.0771 123.817 32.5316C124.004 31.9862 124.098 31.3555 124.098 30.6396C124.098 29.9123 124.004 29.2759 123.817 28.7305C123.635 28.185 123.371 27.7589 123.024 27.4521C122.677 27.1452 122.254 26.9918 121.754 26.9918C121.237 26.9918 120.8 27.1452 120.442 27.4521C120.089 27.7589 119.82 28.185 119.632 28.7305C119.45 29.2759 119.359 29.9123 119.359 30.6396C119.359 31.3555 119.45 31.9862 119.632 32.5316C119.82 33.0771 120.089 33.5032 120.442 33.81C120.8 34.1168 121.237 34.2702 121.754 34.2702Z" fill="white"/>
<defs>
<linearGradient id="paint0_linear_1272_3863" x1="-12.9669" y1="-6.64031" x2="32.5425" y2="111.545" gradientUnits="userSpaceOnUse">
<stop stop-color="#4D0AC7"/>
<stop offset="1" stop-color="#912EF2"/>
</linearGradient>
</defs>
</svg>
